<?xml version="1.0" standalone="no"?>
<!DOCTYPE svg PUBLIC "-//W3C//DTD SVG 20010904//EN"
 "http://www.w3.org/TR/2001/REC-SVG-20010904/DTD/svg10.dtd">
<svg version="1.0" xmlns="http://www.w3.org/2000/svg"
 width="549.000000pt" height="480.000000pt" viewBox="0 0 549.000000 480.000000"
 preserveAspectRatio="xMidYMid meet">
<metadata>
Created by potrace 1.15, written by Peter Selinger 2001-2017
</metadata>
<g transform="translate(0.000000,480.000000) scale(0.100000,-0.100000)"
fill="#000000" stroke="none">
<path d="M3540 4635 c22 -26 -6 -256 -44 -362 -62 -174 -191 -356 -329 -461 -51
-39 -200 -122 -219 -122 -6 0 -24 -6 -41 -14 -45 -20 -129 -36 -192 -36 l-55
0 0 98 c1 114 30 235 90 367 31 68 125 197 193 265 81 81 147 129 257 185 120
62 123 63 165 70 22 4 47 11 55 16 26 15 106 10 120 -6z m165 -1065 c54 -11
116 -26 139 -34 60 -21 179 -81 225 -113 21 -16 49 -35 61 -43 69 -46 206
-193 195 -210 -3 -4 -17 -11 -32 -15 -14 -3 -56 -20 -92 -37 -210 -98 -349
-242 -401 -417 -16 -56 -20 -96 -20 -225 0 -171 8 -203 64 -255 14 -14 26 -33
26 -43 0 -34 -29 -18 -65 37 -41 62 -53 71 -66 58 -11 -11 -1 -33 54 -115 38
-57 39 -58 27 -110 -6 -29 -17 -72 -25 -96 -8 -23 -15 -63 -15 -87 0 -40 3
-46 32 -61 21 -11 43 -14 69 -10 l38 6 18 -52 c14 -38 25 -54 46 -62 23 -9 27
-16 27 -51 0 -28 8 -52 25 -75 14 -19 25 -41 25 -51 0 -23 27 -85 48 -109 25
-30 80 -42 139 -31 57 11 181 17 189 9 2 -3 -2 -21 -10 -39 -8 -19 -33 -79
-56 -134 -44 -102 -96 -206 -130 -260 -11 -16 -23 -37 -27 -45 -4 -8 -35 -57
-70 -108 -35 -51 -63 -97 -63 -102 0 -4 -4 -10 -8 -12 -5 -2 -22 -21 -38 -43
-58 -80 -221 -255 -237 -255 -4 0 -17 -9 -29 -19 -22 -22 -142 -81 -161 -81
-7 0 -18 -5 -24 -11 -13 -13 -199 -7 -258 9 -49 12 -150 49 -185 67 -52 26
-180 65 -246 75 -177 25 -384 -3 -534 -73 -53 -24 -125 -50 -220 -78 -25 -8
-81 -14 -125 -13 -72 0 -88 4 -165 40 -135 64 -242 158 -382 335 -191 240
-355 537 -449 814 -103 304 -155 627 -146 900 16 446 188 798 507 1037 100 75
136 94 260 138 141 51 300 70 428 51 113 -16 192 -39 387 -114 145 -56 167
-62 235 -62 60 0 92 6 165 33 50 19 101 40 115 47 39 20 176 65 270 90 119 31
328 33 465 5z"/>
</g>
</svg>
