<?xml version="1.0" standalone="no"?>
<!DOCTYPE svg PUBLIC "-//W3C//DTD SVG 20010904//EN"
 "http://www.w3.org/TR/2001/REC-SVG-20010904/DTD/svg10.dtd">
<svg version="1.0" xmlns="http://www.w3.org/2000/svg"
 width="750.000000pt" height="500.000000pt" viewBox="0 0 750.000000 500.000000"
 preserveAspectRatio="xMidYMid meet">
<metadata>
Created by potrace 1.15, written by Peter Selinger 2001-2017
</metadata>
<g transform="translate(0.000000,500.000000) scale(0.100000,-0.100000)"
fill="#000000" stroke="none">
<path d="M40 2605 l0 -547 268 5 c287 5 318 9 409 63 86 50 141 166 129 271
-7 61 -42 137 -78 169 -30 28 -102 64 -128 64 -33 0 -23 14 25 34 85 34 135
118 135 225 0 101 -51 178 -149 225 l-66 31 -272 3 -273 3 0 -546z m491 358
c100 -45 104 -177 6 -230 -26 -15 -57 -18 -167 -18 l-135 0 -3 124 c-1 69 0
131 3 139 9 23 236 12 296 -15z m14 -434 c21 -6 54 -26 72 -44 30 -30 33 -39
33 -89 0 -79 -20 -112 -85 -142 -49 -23 -63 -24 -192 -22 l-138 3 -3 140 c-1
76 0 145 2 152 7 17 252 18 311 2z"/>
<path d="M980 2620 l0 -560 90 0 90 0 0 560 0 560 -90 0 -90 0 0 -560z"/>
<path d="M1570 2804 c-108 -29 -199 -103 -247 -202 -26 -52 -28 -66 -28 -172
0 -106 2 -119 28 -170 148 -290 587 -291 730 -1 30 61 32 72 32 171 0 99 -2
110 -33 172 -84 172 -284 255 -482 202z m242 -189 c123 -86 123 -283 0 -369
-49 -34 -136 -46 -196 -26 -178 59 -193 332 -22 412 63 29 162 21 218 -17z"/>
<path d="M2462 2805 c-107 -30 -197 -105 -249 -205 -26 -50 -28 -64 -28 -165
0 -100 3 -116 29 -172 111 -241 454 -296 656 -107 122 115 147 337 55 485 -36
56 -118 124 -182 148 -75 30 -206 37 -281 16z m206 -170 c82 -35 126 -106 127
-205 0 -81 -30 -140 -93 -185 -40 -27 -51 -30 -122 -30 -71 0 -82 3 -122 30
-114 80 -127 258 -26 352 55 51 162 68 236 38z"/>
<path d="M3403 2804 c-26 -9 -60 -35 -88 -66 l-45 -50 0 56 0 56 -85 0 -85 0
0 -370 0 -370 89 0 89 0 4 238 c3 265 8 282 78 329 39 27 116 31 159 8 54 -27
61 -68 61 -335 l0 -240 89 0 89 0 4 233 c3 212 5 235 24 272 30 57 75 85 139
85 39 0 60 -6 80 -22 51 -40 55 -66 55 -328 l0 -240 96 0 96 0 -4 273 c-4 253
-6 276 -27 329 -68 174 -307 216 -442 77 l-46 -48 -24 37 c-37 56 -98 85 -188
89 -51 2 -90 -3 -118 -13z"/>
<path d="M4400 2620 l0 -560 85 0 85 0 0 50 c0 28 4 50 8 50 5 0 18 -13 30
-29 12 -16 47 -42 79 -58 51 -25 69 -28 148 -28 77 0 99 4 152 29 74 34 144
104 174 173 66 154 40 341 -63 459 -116 132 -330 152 -467 44 l-51 -40 0 235
0 235 -90 0 -90 0 0 -560z m518 -4 c110 -76 123 -256 26 -348 -88 -82 -231
-76 -311 15 -64 73 -71 186 -17 273 43 70 98 97 190 92 59 -3 78 -8 112 -32z"/>
<path d="M5573 2805 c-156 -42 -255 -149 -284 -308 -48 -262 169 -482 447
-452 77 8 183 57 232 108 l34 35 -67 51 -68 51 -43 -39 c-103 -96 -277 -74
-333 41 -40 83 -57 78 260 78 l281 0 -4 88 c-6 98 -27 167 -70 229 -75 110
-234 158 -385 118z m197 -151 c39 -24 69 -70 72 -115 l3 -34 -187 -1 c-208 -2
-201 -4 -173 63 21 50 42 72 90 95 50 24 147 20 195 -8z"/>
<path d="M6488 2810 c-46 -14 -93 -47 -121 -87 l-27 -38 0 58 0 58 -92 -3 -93
-3 0 -365 0 -365 93 -3 92 -3 0 218 c0 248 7 277 76 329 35 27 44 29 126 29
l88 0 0 86 c0 70 -3 88 -16 93 -22 8 -93 6 -126 -4z"/>
<path d="M6907 2810 c-129 -33 -226 -138 -256 -278 -42 -197 39 -372 208 -450
47 -22 70 -27 146 -27 99 0 164 22 218 72 l27 27 0 -70 c-1 -161 -83 -232
-257 -222 -81 5 -134 25 -199 75 l-31 23 -52 -70 c-28 -39 -51 -74 -51 -79 0
-12 66 -56 125 -83 46 -21 63 -23 225 -23 l175 0 63 34 c71 38 111 81 146 156
41 85 46 147 46 537 l0 368 -90 0 -90 0 0 -51 0 -50 -34 35 c-48 52 -116 79
-206 82 -41 2 -92 -1 -113 -6z m238 -179 c81 -37 120 -111 113 -217 -7 -118
-90 -194 -213 -194 -82 0 -139 29 -182 94 -29 42 -33 57 -33 112 0 103 37 169
115 205 53 24 147 24 200 0z"/>
</g>
</svg>
