<?xml version="1.0" standalone="no"?>
<!DOCTYPE svg PUBLIC "-//W3C//DTD SVG 20010904//EN"
 "http://www.w3.org/TR/2001/REC-SVG-20010904/DTD/svg10.dtd">
<svg version="1.0" xmlns="http://www.w3.org/2000/svg"
 width="422.000000pt" height="720.000000pt" viewBox="0 0 422.000000 720.000000"
 preserveAspectRatio="xMidYMid meet">
<metadata>
Created by potrace 1.15, written by Peter Selinger 2001-2017
</metadata>
<g transform="translate(0.000000,720.000000) scale(0.100000,-0.100000)"
fill="#000000" stroke="none">
<path d="M2292 6699 c-212 -84 -417 -491 -453 -901 -18 -208 5 -434 82 -801
l40 -189 -83 -75 c-148 -135 -391 -385 -477 -493 -219 -271 -353 -540 -408
-817 -23 -118 -23 -378 0 -480 111 -485 481 -854 981 -979 137 -35 359 -43
495 -20 52 9 95 15 96 14 9 -14 118 -568 125 -635 25 -232 -43 -467 -171 -595
-92 -93 -199 -128 -390 -128 -130 0 -216 23 -274 73 l-39 34 70 5 c135 10 247
85 307 207 29 60 32 74 32 161 0 84 -3 102 -29 158 -20 43 -47 80 -87 116 -74
69 -143 96 -244 96 -101 0 -170 -27 -244 -96 -165 -152 -160 -403 13 -631 83
-110 210 -194 341 -228 78 -20 255 -20 348 1 192 42 355 168 435 334 63 129
76 198 76 380 0 154 -1 158 -67 460 -37 168 -67 313 -67 321 0 8 17 23 38 33
104 50 257 191 335 309 182 275 236 643 132 898 -67 165 -249 352 -433 444
-111 55 -206 76 -341 74 l-115 -1 -68 312 -67 312 95 121 c287 368 454 705
524 1062 28 140 37 386 21 519 -56 440 -292 719 -529 625z m283 -459 c56 -53
80 -250 51 -419 -36 -206 -160 -488 -281 -638 -57 -72 -251 -263 -274 -271
-10 -3 -49 182 -68 328 -53 403 75 786 321 955 106 73 203 90 251 45z m-440
-2254 c30 -141 55 -260 55 -265 0 -4 -37 -26 -82 -49 -172 -86 -310 -222 -393
-387 -58 -115 -78 -197 -79 -310 -1 -259 172 -479 474 -606 39 -17 76 -29 81
-27 6 2 -19 27 -55 57 -85 69 -149 140 -177 198 -31 64 -40 276 -15 371 43
168 157 291 313 336 19 6 22 1 31 -41 151 -702 242 -1147 235 -1154 -20 -20
-200 -41 -308 -36 -361 18 -648 205 -810 527 -172 342 -146 710 69 988 24 31
139 161 256 287 117 127 242 263 278 302 36 40 67 71 69 69 2 -2 28 -119 58
-260z m474 -697 c126 -43 249 -145 313 -259 50 -87 63 -146 63 -275 0 -134
-21 -227 -77 -345 -48 -99 -221 -264 -248 -233 -4 4 -60 253 -124 553 -64 300
-120 556 -123 569 l-6 24 69 -6 c38 -3 98 -16 133 -28z"/>
</g>
</svg>
