<?xml version="1.0" standalone="no"?>
<!DOCTYPE svg PUBLIC "-//W3C//DTD SVG 20010904//EN"
 "http://www.w3.org/TR/2001/REC-SVG-20010904/DTD/svg10.dtd">
<svg version="1.0" xmlns="http://www.w3.org/2000/svg"
 width="800.000000pt" height="800.000000pt" viewBox="0 0 800.000000 800.000000"
 preserveAspectRatio="xMidYMid meet">
<metadata>
Created by potrace 1.15, written by Peter Selinger 2001-2017
</metadata>
<g transform="translate(0.000000,800.000000) scale(0.100000,-0.100000)"
fill="#000000" stroke="none">
<path d="M1280 4695 l0 -2645 2645 0 2645 0 0 2645 0 2645 -2645 0 -2645 0 0
-2645z m2620 2327 l0 -278 -47 -22 c-27 -13 -66 -33 -88 -45 -39 -22 -48 -22
-580 -29 -555 -6 -733 -17 -853 -53 -50 -15 -55 -15 -73 1 -24 22 -98 29 -144
14 -85 -28 -146 -121 -196 -300 -48 -173 -127 -924 -161 -1540 l-3 -45 -217
-3 -218 -2 0 1290 0 1290 1290 0 1290 0 0 -278z m2630 -1012 l0 -1290 -225 0
-225 0 0 29 c0 16 -4 107 -10 202 -12 213 -40 1181 -40 1386 0 164 -11 247
-42 307 -26 50 -109 139 -168 179 -25 16 -58 42 -75 58 -75 69 -251 65 -315
-7 -44 -50 -46 -85 -15 -262 59 -342 78 -642 111 -1684 l6 -208 -211 0 -211 0
0 108 c0 161 18 427 41 611 11 91 17 183 14 205 -30 202 -95 306 -191 306
-133 0 -217 -107 -273 -347 -42 -178 -50 -278 -51 -605 l0 -278 -152 0 -153 0
4 127 c1 71 -4 349 -13 618 -9 270 -18 564 -20 655 -3 121 -10 187 -25 247
-50 201 -170 348 -298 369 l-43 7 0 278 0 279 1290 0 1290 0 0 -1290z m-2854
347 c30 -54 52 -167 64 -327 16 -210 30 -699 30 -1019 l0 -291 -271 0 -271 0
14 23 c263 400 330 538 312 639 -9 48 -47 109 -102 166 -82 85 -145 82 -234
-9 -69 -71 -220 -296 -324 -484 -42 -77 -79 -142 -80 -144 -6 -7 -51 28 -146
117 -81 75 -105 92 -147 102 -60 14 -81 9 -107 -28 -30 -40 -44 -88 -44 -148
0 -92 18 -151 59 -195 l38 -39 -145 0 -145 0 7 133 c9 168 28 370 71 772 19
176 37 347 40 380 11 114 10 112 68 118 70 7 508 103 857 187 446 108 423 105
456 47z m972 -1681 c1 -2 15 -47 30 -102 34 -122 76 -201 122 -232 30 -20 44
-23 91 -19 140 12 218 105 227 273 l4 81 151 6 c82 4 175 7 204 7 l55 0 -5
-757 c-4 -787 -8 -862 -48 -969 -39 -103 -122 -138 -304 -128 -132 7 -165 -2
-165 -45 0 -17 14 -48 35 -77 54 -74 85 -144 85 -190 0 -26 11 -63 30 -100 16
-32 39 -85 51 -117 15 -42 28 -61 51 -73 42 -22 73 -12 169 52 109 73 143 90
234 114 107 29 151 53 218 123 132 138 199 387 227 847 12 206 13 638 0 830
-5 80 -12 220 -16 313 l-7 167 222 0 221 0 0 -1295 0 -1295 -1290 0 -1290 0 0
294 0 294 38 12 c69 23 192 92 221 126 87 99 128 400 151 1104 9 278 9 371 -4
545 -8 115 -12 213 -9 218 5 8 292 0 301 -7z m-2905 -278 c-11 -398 -9 -1044
6 -1232 20 -266 41 -345 121 -445 97 -122 217 -115 284 18 l24 46 -6 948 -5
947 182 0 183 0 54 -42 c30 -24 54 -46 54 -49 0 -4 -18 -47 -41 -96 -164 -354
-248 -614 -249 -761 0 -78 14 -87 73 -44 23 18 65 45 93 61 71 41 129 111 220
265 43 72 106 173 140 224 l62 94 56 -74 c30 -40 89 -118 130 -174 81 -109
142 -170 179 -179 27 -7 165 59 178 85 4 8 19 41 33 73 l25 57 -19 73 c-29
115 -54 161 -130 241 -55 58 -171 160 -219 193 -2 2 1 14 7 28 l12 25 290 0
290 0 0 -247 c0 -526 -40 -1243 -79 -1406 -23 -99 -93 -121 -293 -96 -66 9
-95 9 -114 1 -39 -19 -31 -54 25 -111 44 -44 54 -62 80 -149 23 -72 40 -109
68 -141 84 -99 166 -90 317 33 38 31 82 64 97 72 l29 15 0 -281 0 -280 -1290
0 -1290 0 0 1295 0 1295 216 0 216 0 -9 -282z"/>
</g>
</svg>
