<?xml version="1.0" standalone="no"?>
<!DOCTYPE svg PUBLIC "-//W3C//DTD SVG 20010904//EN"
 "http://www.w3.org/TR/2001/REC-SVG-20010904/DTD/svg10.dtd">
<svg version="1.0" xmlns="http://www.w3.org/2000/svg"
 width="300.000000pt" height="300.000000pt" viewBox="0 0 300.000000 300.000000"
 preserveAspectRatio="xMidYMid meet">
<metadata>
Created by potrace 1.15, written by Peter Selinger 2001-2017
</metadata>
<g transform="translate(0.000000,300.000000) scale(0.100000,-0.100000)"
fill="#000000" stroke="none">
<path d="M1898 2971 c-39 -31 -71 -34 -154 -16 -83 19 -260 17 -319 -4 -16 -6
-84 -12 -150 -14 -170 -5 -239 -37 -286 -135 -16 -33 -37 -54 -83 -83 -152
-96 -256 -199 -274 -270 -22 -87 -24 -173 -8 -309 9 -74 16 -162 16 -195 0
-48 7 -73 35 -128 18 -38 39 -94 45 -125 30 -155 75 -239 176 -331 l56 -51
-22 -73 c-39 -128 -77 -179 -173 -229 -124 -66 -245 -218 -264 -331 -5 -30 -2
-38 13 -43 108 -34 223 -128 294 -240 48 -76 68 -81 129 -30 85 71 197 63 391
-28 271 -128 417 -148 511 -70 30 25 50 34 78 34 43 0 133 -42 158 -74 26 -31
113 -101 150 -120 18 -9 56 -16 87 -16 51 0 59 -3 106 -45 34 -30 55 -42 67
-38 68 24 58 84 -48 296 -68 134 -149 256 -226 338 -37 39 -69 84 -78 109 -33
93 -76 137 -148 150 -31 6 -39 4 -48 -12 -9 -16 -18 -19 -47 -15 -51 7 -139
31 -147 39 -12 12 47 23 123 23 39 0 72 1 72 1 0 1 -7 18 -15 37 -18 44 -19
87 -2 110 11 15 15 15 57 1 54 -19 122 -14 157 12 26 20 60 91 86 180 14 48
14 54 -4 83 -11 18 -33 40 -49 49 -35 20 -36 26 -10 59 11 14 20 38 20 52 0
15 5 32 11 38 6 6 11 33 11 61 -1 50 -1 50 36 56 83 13 109 26 122 56 18 43 7
72 -76 201 -41 64 -74 121 -74 126 0 6 7 16 15 23 25 21 17 75 -36 242 l-51
160 24 25 c18 20 23 35 21 74 -1 34 3 49 12 49 7 0 15 -7 19 -15 6 -18 52 -20
62 -4 17 29 4 71 -35 114 -29 31 -41 53 -41 74 0 51 -20 80 -63 93 -22 7 -48
24 -61 41 -42 57 -121 75 -168 38z m-204 -206 c47 -8 116 -29 152 -46 70 -33
163 -113 209 -179 40 -58 134 -390 110 -390 -4 0 -20 11 -36 25 -27 22 -85 45
-117 45 -22 0 -90 -38 -152 -86 -59 -44 -60 -46 -60 -94 0 -33 5 -50 15 -54
22 -8 39 1 50 27 11 24 39 27 87 8 24 -9 28 -17 34 -71 8 -77 26 -74 37 6 8
57 10 60 45 72 78 28 71 33 155 -97 42 -65 80 -133 83 -149 5 -26 2 -32 -23
-46 -17 -8 -53 -18 -81 -22 -60 -8 -82 4 -82 46 0 14 -3 29 -6 33 -8 7 -238
-182 -242 -200 -6 -22 6 -16 76 40 108 86 132 101 132 83 0 -9 16 -24 35 -33
33 -16 36 -20 33 -58 l-3 -40 -54 -3 c-30 -2 -59 2 -64 7 -21 21 -43 11 -79
-36 -43 -55 -34 -67 21 -29 34 24 44 26 94 20 46 -5 57 -10 57 -25 0 -22 -38
-34 -81 -25 -22 4 -31 1 -36 -11 -7 -18 29 -53 55 -53 19 0 72 -49 72 -66 0
-7 -8 -10 -18 -7 -10 2 -47 -3 -81 -12 -57 -15 -65 -15 -87 -1 -40 27 -82 20
-117 -19 -49 -56 -107 -45 -107 20 0 61 -42 74 -64 20 -10 -22 -22 -35 -34
-35 -29 0 -34 11 -16 37 12 19 13 28 4 38 -14 17 -95 35 -155 35 -63 0 -99 35
-128 125 -20 64 -24 70 -47 67 -77 -10 -119 -6 -138 11 -26 24 -69 114 -82
172 -10 44 -9 45 27 80 21 19 41 35 46 35 4 0 7 -24 7 -54 0 -64 19 -91 57
-81 36 9 61 -3 79 -36 8 -16 19 -27 24 -24 18 11 10 33 -25 75 -42 51 -44 83
-9 135 25 38 25 39 9 76 -22 49 -49 73 -108 99 -79 35 -46 78 38 50 73 -24
179 -171 192 -267 3 -24 -4 -84 -17 -148 -20 -90 -21 -108 -9 -116 17 -10 47
-2 71 18 33 29 80 3 134 -72 18 -26 23 -28 38 -16 10 9 16 29 16 57 0 23 4 45
9 48 6 4 116 -12 129 -20 1 0 -11 -32 -28 -69 -31 -68 -33 -95 -7 -95 14 0
100 207 91 221 -3 5 -23 9 -45 9 -22 0 -59 10 -82 21 -110 56 -167 114 -167
172 0 26 9 38 71 91 33 28 24 53 -21 61 -56 9 -95 46 -121 113 -20 49 -23 83
-28 247 -6 174 -8 193 -28 226 -13 20 -23 45 -23 56 0 63 138 89 314 58z
m-590 -1269 c29 -30 65 -58 80 -62 14 -3 26 -13 26 -21 0 -22 56 -73 80 -73
39 0 80 -34 128 -105 65 -98 100 -134 143 -145 42 -12 127 -66 143 -92 10 -16
2 -31 -60 -116 -1 -2 -87 53 -191 121 -167 111 -306 197 -402 249 -40 22 -41
48 -3 48 16 0 50 -6 75 -14 26 -8 49 -11 52 -7 6 10 -77 155 -115 203 -30 37
-39 68 -20 68 6 0 35 -25 64 -54z m1019 -864 c66 -63 261 -372 244 -388 -3 -4
-227 192 -351 307 l-59 55 13 38 12 38 52 -7 c40 -6 59 -15 89 -43z"/>
</g>
</svg>
