<?xml version="1.0" standalone="no"?>
<!DOCTYPE svg PUBLIC "-//W3C//DTD SVG 20010904//EN"
 "http://www.w3.org/TR/2001/REC-SVG-20010904/DTD/svg10.dtd">
<svg version="1.0" xmlns="http://www.w3.org/2000/svg"
 width="650.000000pt" height="830.000000pt" viewBox="0 0 650.000000 830.000000"
 preserveAspectRatio="xMidYMid meet">
<metadata>
Created by potrace 1.15, written by Peter Selinger 2001-2017
</metadata>
<g transform="translate(0.000000,830.000000) scale(0.100000,-0.100000)"
fill="#000000" stroke="none">
<path d="M3125 8123 c-220 -18 -453 -69 -690 -151 -408 -141 -783 -377 -1087
-685 -448 -453 -731 -1027 -817 -1657 -99 -731 74 -1461 487 -2055 95 -136
158 -211 343 -406 89 -93 276 -244 429 -346 631 -417 1412 -571 2145 -422 875
178 1615 743 2015 1539 127 253 235 599 276 885 29 201 27 639 -4 832 -62 385
-178 716 -364 1036 -459 792 -1257 1316 -2166 1422 -114 13 -447 18 -567 8z
m654 -112 c744 -117 1379 -498 1824 -1096 281 -378 461 -814 534 -1290 25
-168 25 -628 -1 -795 -128 -838 -598 -1549 -1309 -1985 -287 -175 -525 -267
-917 -355 -275 -61 -722 -65 -1030 -9 -647 117 -1256 475 -1659 974 -127 158
-137 172 -216 300 -354 570 -487 1266 -374 1950 76 462 270 902 569 1287 99
128 359 382 495 484 332 248 684 411 1075 498 109 24 167 34 335 56 123 16
523 4 674 -19z"/>
<path d="M3468 7903 c-29 -4 -39 -23 -13 -23 8 0 24 -9 35 -20 18 -18 20 -33
20 -145 0 -69 -2 -125 -5 -125 -7 0 -55 55 -159 180 -48 58 -95 111 -105 118
-13 9 -41 11 -104 6 -87 -7 -108 -16 -62 -28 50 -13 55 -34 55 -266 1 -193 0
-216 -16 -227 -10 -7 -26 -13 -36 -13 -10 0 -18 -4 -18 -10 0 -11 130 -14 167
-4 26 7 21 24 -6 24 -42 0 -49 27 -57 213 -5 125 -4 177 4 177 6 0 73 -73 149
-162 184 -216 225 -260 234 -251 4 4 3 116 -2 247 -9 259 -7 276 42 291 54 18
-39 31 -123 18z"/>
<path d="M3870 7842 c0 -6 9 -14 20 -17 43 -14 43 -34 -6 -257 -26 -119 -53
-221 -62 -231 -11 -12 -24 -16 -38 -13 -13 4 -25 2 -28 -3 -7 -11 39 -27 104
-36 25 -4 69 -13 99 -21 63 -16 87 -8 42 13 -39 19 -39 24 -2 188 16 72 36
165 46 207 18 86 33 108 73 108 47 1 2 18 -101 40 -53 10 -107 22 -121 26 -16
4 -26 2 -26 -4z"/>
<path d="M2618 7783 c-73 -27 -86 -43 -39 -43 16 0 36 -6 44 -14 21 -21 116
-258 130 -322 15 -72 -5 -115 -67 -146 -39 -19 -50 -20 -83 -10 -24 7 -45 22
-56 41 -22 38 -147 349 -147 367 0 7 11 21 25 30 14 9 23 19 21 22 -8 7 -246
-88 -246 -99 0 -5 10 -7 23 -4 12 3 29 0 38 -7 9 -7 46 -87 83 -178 73 -183
110 -232 181 -246 47 -9 143 20 196 58 41 30 79 92 79 130 0 32 -29 122 -84
260 -25 64 -46 123 -46 132 0 8 12 24 26 35 22 18 24 21 8 20 -11 0 -49 -12
-86 -26z"/>
<path d="M4430 7684 c0 -3 5 -15 11 -26 11 -20 7 -88 -22 -383 -5 -55 -11
-124 -14 -152 -3 -32 -1 -53 5 -53 5 0 105 72 222 160 151 115 224 164 255
172 23 5 41 14 38 18 -9 14 -136 82 -142 76 -4 -3 2 -15 11 -25 33 -36 17 -61
-94 -148 -106 -82 -147 -110 -153 -102 -5 5 21 294 29 328 4 21 9 23 39 18 19
-3 35 -2 35 2 0 8 -200 121 -213 121 -4 0 -7 -3 -7 -6z"/>
<path d="M5150 7221 c25 -48 14 -66 -112 -184 -221 -207 -218 -205 -266 -171
-62 43 19 -52 231 -274 l70 -73 68 46 c75 49 88 69 37 54 -61 -17 -111 -11
-159 20 -46 29 -89 75 -89 95 0 12 140 156 153 156 4 0 15 -16 23 -35 13 -33
13 -39 -7 -85 -12 -28 -20 -52 -18 -54 7 -6 204 183 197 189 -3 4 -20 -1 -37
-9 -49 -26 -121 -15 -121 18 0 14 133 146 147 146 13 0 57 -49 82 -90 25 -42
27 -90 5 -131 -8 -17 -13 -34 -9 -37 7 -7 116 99 113 109 -2 4 -51 58 -109
121 -58 62 -125 134 -148 161 -45 48 -70 62 -51 28z"/>
<path d="M1589 7214 c-1 -5 0 -19 1 -31 1 -17 -10 -28 -50 -48 -115 -58 -190
-170 -190 -284 0 -96 16 -138 80 -202 107 -108 239 -117 368 -25 51 36 126
132 154 195 l18 44 -55 58 c-60 63 -60 62 -44 91 24 45 -5 25 -83 -57 -46 -48
-84 -91 -86 -96 -5 -12 15 -11 23 1 14 23 52 7 102 -41 51 -49 52 -52 39 -77
-45 -86 -134 -114 -223 -71 -91 44 -204 171 -217 244 -9 48 21 114 69 151 42
32 124 43 188 26 20 -6 39 -7 42 -3 2 5 -24 33 -58 64 -34 30 -65 59 -69 63
-5 4 -8 3 -9 -2z"/>
<path d="M3228 7199 c-165 -12 -369 -57 -528 -116 -463 -173 -839 -510 -1063
-954 -206 -405 -265 -833 -177 -1284 208 -1069 1280 -1767 2344 -1524 492 112
918 408 1205 836 142 213 245 477 298 763 22 118 25 482 5 605 -149 920 -890
1609 -1801 1674 -145 10 -153 10 -283 0z m442 -108 c197 -45 278 -67 377 -107
724 -288 1193 -979 1193 -1756 0 -845 -582 -1595 -1399 -1804 -155 -39 -285
-54 -472 -54 -312 0 -546 53 -814 185 -565 277 -948 812 -1031 1439 -20 146
-14 423 11 561 88 498 359 924 773 1222 109 79 357 203 482 242 239 75 350 91
615 87 117 -2 234 -9 265 -15z"/>
<path d="M3170 7034 c-81 -10 -251 -48 -337 -75 -436 -139 -814 -454 -1037
-864 -215 -397 -272 -872 -157 -1322 150 -588 616 -1074 1201 -1257 199 -62
327 -80 545 -79 164 0 208 4 320 27 256 53 456 135 660 271 307 205 536 484
673 820 43 108 80 237 109 380 14 70 18 137 17 305 0 193 -3 228 -27 341 -82
389 -256 706 -532 966 -244 232 -530 383 -870 459 -94 22 -141 26 -320 29
-115 2 -226 1 -245 -1z m455 -278 c38 -16 81 -75 91 -125 6 -29 14 -36 58 -54
198 -80 470 -245 643 -389 184 -153 444 -456 459 -534 16 -85 -15 -177 -64
-190 -51 -14 -152 51 -215 139 -156 218 -355 415 -547 539 -84 55 -260 148
-279 148 -25 0 -31 -41 -23 -150 10 -130 12 -132 123 -189 160 -81 317 -196
468 -344 179 -175 301 -341 398 -542 41 -86 48 -108 48 -160 -1 -108 -51 -157
-137 -134 -62 16 -109 73 -187 225 -86 168 -144 247 -276 380 -127 128 -272
235 -469 347 -165 94 -217 139 -236 204 -13 45 -29 326 -32 578 -3 163 -1 183
16 208 37 54 96 70 161 43z m-524 -29 c61 -41 67 -65 79 -340 18 -412 17 -465
-7 -517 -25 -56 -38 -68 -188 -171 -374 -257 -590 -508 -702 -815 -59 -163
-132 -242 -212 -230 -47 7 -69 31 -87 94 -20 68 -15 96 43 241 134 337 429
697 727 886 43 28 95 64 115 82 l36 32 -3 113 c-3 125 -7 148 -27 148 -8 0
-49 -21 -92 -47 -244 -146 -435 -337 -616 -613 -121 -185 -125 -189 -174 -220
-85 -54 -138 -33 -164 64 -18 66 -6 113 51 211 208 354 572 694 937 878 68 34
71 38 77 79 13 81 78 147 147 148 14 0 41 -10 60 -23z m327 -1047 c32 -20 47
-47 108 -188 21 -51 58 -82 129 -108 138 -51 369 -254 515 -452 87 -119 187
-293 232 -407 29 -71 33 -91 33 -180 0 -83 -3 -106 -20 -135 -28 -47 -77 -52
-139 -16 -57 33 -90 86 -137 220 -53 149 -78 201 -143 301 -70 108 -179 217
-281 284 -91 59 -148 80 -173 64 -14 -8 -17 -28 -17 -105 l0 -94 53 -60 c118
-130 263 -384 363 -634 52 -131 63 -225 30 -278 -43 -67 -120 -64 -184 8 -41
44 -66 90 -100 182 -68 180 -215 420 -273 446 -35 16 -57 0 -112 -85 -86 -134
-168 -329 -197 -473 -11 -53 -50 -124 -85 -154 -68 -56 -154 -21 -180 74 -37
136 105 553 272 798 91 134 102 158 106 232 7 130 -29 151 -137 79 -87 -59
-230 -204 -290 -295 -64 -99 -101 -187 -146 -354 -59 -218 -96 -273 -181 -274
-42 -1 -49 3 -78 37 l-31 39 0 121 c1 138 17 208 84 365 124 290 352 558 600
705 95 57 126 100 142 199 13 86 26 114 63 138 43 27 129 27 174 0z"/>
<path d="M5688 6584 c-4 -3 -5 -19 -1 -34 4 -22 0 -31 -18 -43 -43 -28 -386
-177 -408 -177 -11 0 -29 10 -41 22 -14 15 -20 18 -20 7 0 -20 102 -240 108
-234 3 3 6 20 6 38 1 30 6 34 89 75 133 65 137 51 36 -115 -40 -65 -73 -121
-75 -124 -6 -10 65 -149 76 -149 5 0 10 11 10 25 0 35 128 248 143 238 7 -4
27 -17 46 -30 42 -28 72 -29 127 -2 32 15 48 32 65 65 29 61 22 94 -51 260
-74 166 -84 186 -92 178z m78 -229 c29 -71 11 -123 -53 -150 -41 -17 -86 -19
-113 -5 -22 12 -63 76 -58 90 3 10 181 97 201 99 4 1 15 -15 23 -34z"/>
<path d="M1046 6485 c-39 -84 -47 -105 -38 -105 4 0 16 10 26 21 14 17 25 20
51 16 46 -8 228 -95 221 -106 -4 -5 -28 -14 -54 -20 -127 -28 -318 -83 -328
-94 -17 -19 -77 -158 -71 -164 3 -3 18 4 33 16 15 11 33 21 42 21 14 0 90 -33
270 -117 52 -23 97 -43 102 -43 17 0 33 -33 32 -65 -1 -19 1 -35 4 -35 7 0 74
145 74 161 0 7 -10 3 -23 -9 -13 -12 -35 -22 -49 -22 -27 0 -294 114 -316 135
-14 13 43 32 362 117 87 24 159 48 159 53 -1 6 -92 51 -204 102 -264 119 -257
115 -261 161 l-3 37 -29 -60z"/>
<path d="M5808 5739 c-41 -21 -83 -84 -120 -183 -43 -110 -108 -147 -163 -91
-20 19 -25 34 -25 72 0 64 26 111 82 148 25 17 54 36 64 43 16 11 2 12 -81 7
-105 -6 -126 -13 -100 -35 18 -15 19 -41 4 -108 -21 -88 21 -191 91 -227 38
-20 113 -19 156 1 38 18 75 74 119 179 38 89 68 125 105 125 59 0 91 -91 56
-158 -18 -35 -54 -68 -88 -81 -16 -6 -28 -16 -28 -22 0 -11 57 -8 148 8 32 5
45 23 18 23 -25 0 -27 17 -10 76 20 68 13 124 -21 175 -43 67 -133 87 -207 48z"/>
<path d="M767 5715 c-12 -61 -29 -224 -24 -237 3 -8 9 -3 16 15 6 15 18 30 26
33 19 8 398 -33 443 -47 26 -9 32 -16 32 -40 0 -42 17 -36 24 9 16 110 27 224
22 229 -3 3 -10 -6 -16 -21 -5 -15 -17 -29 -25 -33 -16 -6 -266 20 -399 41
-67 11 -70 12 -81 46 l-12 35 -6 -30z"/>
<path d="M1227 5252 c-9 -21 -73 -93 -145 -165 l-129 -129 -101 102 c-56 56
-104 110 -107 121 -11 35 -27 21 -21 -18 3 -21 8 -66 12 -100 6 -65 20 -84 26
-36 6 53 34 40 139 -63 54 -54 99 -103 99 -109 0 -12 -85 -25 -166 -25 -37 0
-46 4 -59 28 -15 26 -15 22 -10 -63 8 -124 16 -175 26 -175 5 0 9 11 9 24 0
13 6 28 13 33 14 12 219 40 359 49 105 7 128 0 128 -39 0 -13 4 -17 9 -11 6 5
4 55 -5 129 -17 137 -19 147 -29 120 -16 -47 -21 -50 -116 -62 -59 -7 -98 -8
-104 -2 -14 14 153 179 181 179 12 0 24 -6 27 -12 2 -7 7 -11 10 -8 6 6 -17
258 -25 265 -2 3 -12 -12 -21 -33z"/>
<path d="M5508 5184 c-3 -5 -8 -45 -12 -89 -4 -44 -9 -101 -12 -127 -7 -54 6
-63 23 -18 11 28 14 30 67 30 98 0 410 -31 423 -42 7 -6 13 -21 13 -34 0 -48
18 -22 24 34 16 165 18 212 7 212 -6 0 -11 -8 -11 -18 0 -46 -32 -50 -265 -31
-223 17 -228 18 -241 58 -6 19 -13 30 -16 25z"/>
<path d="M5377 4528 c-44 -120 -50 -156 -20 -110 9 13 26 22 40 22 20 0 153
-43 391 -127 23 -8 42 -19 42 -24 0 -20 -40 -87 -55 -93 -9 -3 -35 -6 -57 -6
-27 0 -38 -4 -36 -12 5 -14 107 -51 124 -44 18 7 167 427 156 438 -15 15 -115
48 -125 41 -4 -3 8 -20 27 -39 27 -26 36 -43 36 -67 0 -47 -10 -77 -26 -77
-22 0 -396 130 -423 147 -18 12 -22 21 -17 44 13 67 -15 21 -57 -93z"/>
<path d="M1283 4477 c-35 -11 -63 -24 -63 -28 0 -3 25 -9 56 -12 30 -3 66 -13
80 -22 31 -20 84 -112 84 -147 0 -25 -9 -32 -80 -68 -93 -47 -107 -49 -116
-16 -7 28 7 59 44 98 14 15 23 30 21 33 -5 5 -216 -100 -233 -116 -6 -5 14 -8
46 -6 43 1 61 -2 77 -17 37 -33 26 -48 -69 -96 -102 -51 -96 -53 -130 38 -29
78 -25 107 23 159 11 13 18 26 14 29 -8 8 -118 -47 -124 -61 -3 -10 57 -147
154 -352 28 -61 41 -68 35 -20 -2 20 2 37 10 44 24 19 349 185 379 193 26 8
34 5 55 -17 13 -14 24 -20 24 -13 0 7 -43 105 -96 217 -69 144 -101 203 -113
202 -9 0 -44 -10 -78 -22z"/>
<path d="M5062 3943 c-50 -59 -89 -109 -87 -111 2 -3 16 3 29 12 39 25 57 20
130 -36 l68 -53 54 -135 c32 -79 54 -150 54 -172 0 -21 4 -38 8 -38 11 0 103
112 97 118 -3 3 -11 0 -17 -6 -7 -7 -22 -12 -34 -12 -22 0 -41 35 -93 168 -27
69 -27 76 7 68 15 -3 71 -12 126 -21 54 -8 103 -18 108 -21 6 -4 7 -19 4 -35
-3 -16 -4 -29 -2 -29 2 0 38 40 80 89 84 99 98 129 47 102 -12 -7 -52 -5 -117
5 -156 23 -228 33 -240 34 -22 0 -144 101 -144 118 0 10 7 28 16 40 8 12 11
22 6 22 -5 0 -50 -48 -100 -107z"/>
<path d="M1800 3822 c0 -7 5 -21 12 -31 18 -29 0 -59 -76 -125 l-66 -58 -60
55 c-88 82 -160 96 -224 46 -58 -45 -70 -113 -35 -186 19 -40 209 -264 230
-271 12 -5 12 15 -1 23 -5 3 -10 17 -10 30 0 17 42 63 167 179 175 162 196
175 235 139 64 -58 -56 93 -153 192 -11 11 -19 14 -19 7z m-180 -217 l21 -22
-71 -69 c-89 -86 -96 -90 -120 -69 -45 41 -30 111 32 158 54 41 101 41 138 2z"/>
<path d="M3973 3201 c-102 -47 -97 -181 10 -251 31 -19 37 -28 31 -45 -3 -11
-9 -42 -11 -68 -4 -39 -1 -54 18 -82 40 -58 99 -71 168 -35 39 20 71 74 71
122 0 45 -42 110 -91 140 -43 27 -47 32 -38 55 25 66 0 141 -57 168 -41 19
-50 19 -101 -4z m146 -307 c85 -50 96 -184 13 -153 -26 10 -72 99 -72 142 0
32 18 35 59 11z"/>
<path d="M3000 3170 c-14 -4 -46 -14 -72 -20 -51 -13 -62 -27 -25 -32 35 -5
32 -39 -18 -213 -44 -155 -63 -192 -92 -181 -7 3 -15 1 -17 -3 -6 -9 148 -61
180 -61 17 0 17 2 -5 19 -30 23 -29 33 42 287 32 110 57 203 57 207 0 9 -18 8
-50 -3z"/>
<path d="M3625 3107 c-39 -39 -57 -109 -46 -179 14 -87 64 -134 130 -123 l39
6 -9 -43 c-13 -56 -51 -111 -94 -134 -19 -10 -35 -23 -35 -27 0 -14 50 1 98
29 86 50 132 149 132 284 0 128 -60 220 -142 220 -32 0 -47 -7 -73 -33z m85
-12 c29 -34 52 -226 30 -240 -20 -12 -48 6 -60 38 -14 38 -25 179 -17 201 8
20 31 21 47 1z"/>
<path d="M3266 3109 c-61 -48 -72 -122 -30 -199 l26 -48 -37 -34 c-90 -82 -37
-228 82 -228 110 0 170 139 108 249 l-25 43 29 31 c54 54 53 136 0 181 -40 34
-113 36 -153 5z"/>
<path d="M5674 2252 c-7 -4 -19 -25 -28 -47 -18 -44 -78 -111 -140 -156 -32
-24 -49 -29 -97 -29 -62 0 -88 -15 -42 -26 93 -20 107 -32 81 -74 -16 -25 -2
-38 24 -21 33 21 45 -2 18 -36 -26 -33 -57 -52 -86 -53 -28 0 -36 -10 -23 -26
15 -19 4 -56 -27 -93 -36 -43 -12 -50 55 -17 78 40 141 31 141 -21 0 -32 -39
-70 -177 -173 -106 -78 -152 -100 -322 -150 -103 -30 -104 -40 -7 -47 136 -11
318 73 532 246 79 63 103 76 117 62 24 -24 -46 -113 -138 -176 -56 -39 -72
-62 -56 -78 18 -18 101 14 190 74 181 120 204 176 85 209 -30 9 -44 18 -44 30
0 9 38 66 84 126 125 164 140 205 81 232 -34 16 -62 15 -130 -3 -34 -8 -75
-12 -105 -8 -67 8 -66 25 10 125 33 44 60 86 60 92 0 12 -31 46 -41 46 -2 0
-9 -4 -15 -8z m149 -309 c24 -15 -33 -114 -101 -175 -47 -42 -60 -46 -68 -20
-26 86 -65 105 -74 37 -6 -50 -35 -60 -51 -18 -8 23 -6 39 16 95 38 95 48 101
170 93 55 -4 103 -9 108 -12z"/>
<path d="M2730 2187 c0 -3 14 -35 31 -72 26 -55 30 -74 25 -111 -7 -53 3 -56
79 -20 58 27 105 68 105 91 0 29 -54 72 -110 88 -68 19 -130 31 -130 24z"/>
<path d="M3953 2123 c-4 -9 -1 -53 6 -97 26 -162 31 -213 34 -333 2 -144 14
-128 -150 -203 -145 -66 -237 -98 -342 -118 -111 -22 -122 -38 -64 -92 57 -54
105 -55 183 -6 113 71 254 149 287 159 27 9 36 8 43 -3 17 -28 -85 -196 -164
-268 -47 -43 -116 -81 -148 -82 -28 0 -31 -19 -5 -29 53 -20 220 42 315 118
91 72 144 175 167 322 5 31 14 42 64 72 62 39 195 157 212 189 14 26 -2 43
-33 34 -13 -3 -67 -37 -121 -75 -56 -40 -104 -68 -113 -64 -11 4 -14 33 -14
147 0 132 1 143 21 160 16 14 20 25 15 48 -3 17 -11 37 -18 45 -14 17 -80 57
-131 78 -35 14 -38 14 -44 -2z"/>
<path d="M1079 1925 c103 -109 119 -183 122 -580 l1 -200 -70 -66 c-82 -77
-170 -138 -204 -141 -21 -3 -23 1 -22 37 1 48 51 156 95 202 16 18 56 51 89
73 74 51 92 74 78 105 -12 26 -84 57 -178 77 -78 16 -89 6 -60 -50 31 -58 35
-110 15 -157 -59 -138 -99 -300 -93 -371 3 -37 5 -39 34 -38 35 2 106 47 228
144 41 33 82 60 89 60 14 0 27 -77 27 -162 0 -35 3 -39 22 -36 18 3 26 21 56
128 31 114 34 139 36 275 4 223 -11 512 -29 565 -29 87 -93 142 -204 176 -84
25 -89 19 -32 -41z"/>
<path d="M5066 1898 c61 -68 96 -146 103 -227 3 -36 11 -66 17 -68 17 -6 65
37 79 70 19 46 3 93 -52 149 -41 42 -168 128 -188 128 -4 0 15 -24 41 -52z"/>
<path d="M1637 1893 c-3 -5 -17 -53 -32 -107 -26 -94 -27 -109 -23 -265 4
-148 8 -173 30 -231 40 -103 73 -162 113 -200 47 -45 85 -45 221 3 164 57 254
109 254 145 0 21 -70 10 -194 -32 -132 -44 -165 -50 -172 -31 -4 8 1 27 11 41
13 20 16 44 14 104 -4 97 5 110 75 110 77 1 146 28 173 69 50 75 12 161 -71
161 -16 0 -45 -23 -93 -75 -67 -71 -102 -91 -118 -65 -3 5 -8 48 -10 95 -6
100 -24 144 -93 217 -49 52 -78 73 -85 61z"/>
<path d="M2806 1794 c-116 -52 -212 -97 -215 -100 -15 -15 86 -104 118 -104
37 0 331 258 331 290 0 18 -22 10 -234 -86z"/>
<path d="M2817 1514 c-31 -27 -83 -73 -116 -102 l-60 -53 -17 25 c-31 49 -37
31 -31 -91 5 -118 19 -183 40 -183 6 0 26 10 44 23 31 21 33 26 33 80 0 32 7
74 15 94 14 33 17 35 31 21 19 -19 33 -78 34 -139 0 -42 -4 -50 -47 -91 -73
-67 -158 -127 -230 -160 -94 -44 -95 -70 -6 -104 l46 -18 39 45 c21 24 59 73
85 109 53 71 107 110 126 91 6 -6 12 -29 12 -51 0 -29 -7 -47 -28 -68 -18 -18
-25 -35 -21 -45 9 -25 102 -90 119 -84 39 15 25 99 -48 288 -30 79 -26 89 46
122 60 28 117 73 117 93 0 10 -14 14 -54 14 -30 0 -57 4 -60 9 -4 5 40 52 96
105 56 52 99 98 95 102 -4 4 -51 9 -105 12 l-98 4 -57 -48z"/>
<path d="M4300 1295 c0 -8 5 -17 10 -20 18 -11 61 -105 69 -149 l7 -41 53 0
c44 1 57 5 72 24 26 32 24 45 -12 86 -36 40 -94 77 -157 99 -35 13 -42 13 -42
1z"/>
<path d="M5520 1255 c-80 -17 -256 -68 -460 -135 -85 -28 -172 -55 -192 -61
-21 -5 -38 -16 -38 -24 0 -23 84 -85 116 -85 15 0 65 18 110 40 87 44 305 104
341 95 22 -5 53 -76 53 -123 0 -60 -52 -115 -139 -147 l-36 -14 30 -1 c93 -5
142 8 178 48 21 24 24 57 9 141 -15 86 -1 120 59 145 24 10 59 24 77 32 40 17
62 58 41 78 -22 21 -78 25 -149 11z"/>
<path d="M3050 1196 c0 -25 39 -140 55 -163 21 -30 50 -29 80 2 37 36 32 66
-20 114 -59 54 -115 77 -115 47z"/>
<path d="M2448 491 c-80 -26 -122 -77 -120 -149 0 -56 24 -89 83 -120 36 -19
55 -23 104 -19 33 3 72 10 88 16 23 9 27 16 27 50 0 28 5 43 18 50 13 8 -2 10
-58 10 -56 0 -71 -2 -57 -10 12 -7 17 -23 17 -54 l0 -45 -41 0 c-31 0 -47 6
-70 29 -25 26 -29 37 -29 86 0 96 32 145 97 145 36 0 89 -32 98 -59 11 -36 25
-23 25 22 0 42 -1 43 -32 43 -18 0 -53 3 -78 6 -25 4 -57 3 -72 -1z"/>
<path d="M868 480 c21 -9 22 -14 22 -130 0 -116 -1 -121 -22 -130 -17 -6 -1
-9 57 -9 53 0 73 3 59 9 -16 6 -21 18 -22 51 -2 50 11 69 49 69 42 0 76 19 90
51 9 24 9 33 -5 54 -10 14 -28 30 -42 35 -33 13 -218 12 -186 0z"/>
<path d="M1153 479 c15 -9 17 -26 17 -134 0 -109 -2 -124 -17 -128 -10 -3 42
-5 115 -6 l132 -1 0 24 c0 13 3 33 6 43 4 11 -5 5 -24 -14 -27 -29 -37 -33
-81 -33 l-51 0 0 55 c0 39 4 55 13 55 15 0 41 -26 50 -50 3 -8 5 19 5 60 0 41
-2 68 -5 60 -9 -24 -35 -50 -50 -50 -9 0 -13 16 -13 55 l0 55 44 0 c38 0 48
-5 70 -32 l26 -33 0 43 0 42 -127 0 c-92 -1 -123 -3 -110 -11z"/>
<path d="M1463 479 c15 -9 17 -26 17 -134 0 -109 -2 -124 -17 -128 -10 -3 16
-5 57 -6 55 0 70 2 58 10 -14 8 -18 23 -18 66 l0 57 31 -30 c17 -16 40 -42 51
-58 17 -23 18 -30 7 -37 -9 -5 16 -9 66 -9 77 1 79 1 55 17 -29 18 -135 138
-135 152 0 11 82 76 123 97 26 13 24 14 -33 13 -33 0 -54 -3 -47 -6 25 -10 10
-32 -50 -78 l-63 -46 -3 53 c-3 41 1 55 14 65 15 11 6 13 -57 13 -55 -1 -70
-3 -56 -11z"/>
<path d="M1823 479 c15 -9 17 -26 17 -134 0 -109 -2 -124 -17 -128 -10 -3 16
-5 57 -5 41 0 67 2 58 5 -16 4 -18 19 -18 128 0 108 2 125 18 134 13 8 -2 10
-58 10 -56 0 -71 -2 -57 -10z"/>
<path d="M1998 474 c21 -14 22 -23 22 -130 0 -110 -1 -115 -22 -124 -18 -7
-11 -9 32 -9 43 0 50 2 33 9 -22 9 -23 15 -23 106 0 52 4 94 8 92 5 -1 51 -51
104 -110 53 -58 99 -104 102 -101 3 4 6 64 6 134 0 111 2 129 18 138 13 8 6
10 -33 11 -48 0 -49 -1 -27 -16 19 -13 22 -24 22 -80 0 -35 -3 -64 -8 -64 -4
0 -38 36 -76 80 l-68 80 -56 0 c-54 0 -55 -1 -34 -16z"/>
<path d="M2971 474 c9 -11 14 -48 16 -107 1 -50 4 -101 8 -114 12 -49 126 -71
186 -36 37 22 49 63 49 167 0 63 3 81 18 92 15 12 11 13 -30 14 l-48 0 20 -20
c16 -16 20 -33 19 -92 -1 -124 -33 -172 -105 -154 -34 9 -44 42 -44 146 0 80
2 90 22 104 21 15 18 16 -51 16 -67 0 -72 -1 -60 -16z"/>
<path d="M3308 473 c21 -14 22 -23 22 -126 0 -82 -4 -115 -14 -126 -13 -14
-11 -16 22 -15 49 2 50 3 30 15 -15 8 -18 25 -18 107 l1 97 109 -115 109 -115
1 132 c0 125 1 133 22 147 22 15 21 16 -27 16 -44 -1 -48 -2 -32 -14 15 -12
17 -26 15 -84 l-3 -70 -74 84 -73 84 -57 -1 c-54 0 -55 -1 -33 -16z"/>
<path d="M3658 474 c21 -14 22 -23 22 -128 0 -74 -4 -116 -12 -124 -7 -7 -10
-12 -7 -13 2 0 28 -1 57 -2 43 -2 51 1 45 13 -4 8 -9 65 -11 127 -3 106 -2
112 20 127 21 15 19 16 -57 16 -75 0 -78 -1 -57 -16z"/>
<path d="M3833 472 c9 -9 44 -75 78 -145 34 -71 65 -125 69 -120 5 4 36 62 70
128 34 66 69 125 76 131 23 19 16 24 -33 24 -38 -1 -44 -3 -30 -11 9 -5 17
-18 17 -27 0 -20 -61 -152 -70 -152 -3 0 -24 36 -45 81 -39 78 -39 81 -21 95
18 13 12 14 -54 14 -69 0 -72 -1 -57 -18z"/>
<path d="M4188 475 c21 -15 22 -23 22 -129 0 -74 -4 -116 -12 -124 -9 -9 -8
-12 8 -13 39 -1 229 2 230 4 1 1 4 20 8 42 l7 40 -26 -32 c-19 -24 -37 -34
-70 -39 -60 -9 -75 5 -75 67 0 42 3 49 20 49 12 0 28 -13 40 -32 l20 -33 0 75
0 75 -20 -32 c-12 -20 -28 -33 -40 -33 -18 0 -20 7 -20 55 l0 55 43 0 c45 0
87 -22 87 -46 0 -8 5 -14 11 -14 6 0 9 16 7 38 l-3 37 -130 3 c-121 2 -128 1
-107 -13z"/>
<path d="M4503 480 c15 -10 17 -28 17 -135 0 -77 -4 -125 -10 -125 -5 0 -10
-4 -10 -9 0 -9 108 -7 117 3 4 3 1 6 -5 6 -8 0 -12 20 -12 55 0 38 4 55 13 55
6 -1 32 -27 57 -60 44 -58 46 -59 94 -60 41 0 47 2 35 12 -8 7 -32 35 -54 62
-33 42 -36 50 -22 57 53 30 62 81 22 119 -22 20 -36 23 -142 27 -89 3 -114 1
-100 -7z"/>
<path d="M4866 464 c-48 -49 -28 -98 57 -140 91 -46 107 -71 62 -100 -35 -23
-90 -3 -117 42 -11 19 -22 34 -24 34 -2 0 -4 -21 -4 -47 l0 -48 79 -3 c73 -2
82 0 110 24 23 19 31 34 31 59 0 39 -29 68 -107 104 -55 25 -70 45 -52 67 30
36 88 23 119 -28 l20 -33 0 49 c0 38 -3 46 -13 38 -8 -7 -18 -7 -27 -2 -8 6
-36 10 -61 10 -37 0 -52 -5 -73 -26z"/>
<path d="M5113 479 c15 -9 17 -26 17 -132 0 -68 -4 -127 -9 -132 -6 -6 12 -10
50 -10 56 0 71 6 49 20 -6 4 -10 55 -10 120 0 106 1 115 22 129 21 15 18 16
-57 16 -59 -1 -75 -3 -62 -11z"/>
<path d="M5287 484 c-11 -11 -8 -74 3 -74 6 0 10 6 10 13 0 22 34 47 63 47
l27 0 0 -118 c0 -78 -4 -122 -12 -130 -13 -13 -12 -14 37 -14 67 0 67 0 55 22
-6 12 -9 65 -8 127 l3 108 27 3 c26 3 33 -2 63 -43 14 -19 15 -17 13 20 l-3
40 -136 3 c-74 1 -138 -1 -142 -4z"/>
<path d="M5616 468 c11 -13 39 -54 62 -91 44 -71 55 -130 30 -155 -9 -9 -8
-12 8 -13 10 0 35 -1 54 -2 l36 -2 -4 57 c-4 52 -1 63 29 110 19 29 47 67 63
85 l28 33 -48 0 c-38 -1 -45 -3 -31 -11 9 -5 17 -14 17 -20 0 -8 -70 -119 -75
-119 -2 0 -19 28 -39 61 -29 48 -34 64 -25 75 10 12 0 14 -57 14 l-67 0 19
-22z"/>
</g>
</svg>
