<?xml version="1.0" standalone="no"?>
<!DOCTYPE svg PUBLIC "-//W3C//DTD SVG 20010904//EN"
 "http://www.w3.org/TR/2001/REC-SVG-20010904/DTD/svg10.dtd">
<svg version="1.0" xmlns="http://www.w3.org/2000/svg"
 width="450.000000pt" height="286.000000pt" viewBox="0 0 450.000000 286.000000"
 preserveAspectRatio="xMidYMid meet">
<metadata>
Created by potrace 1.15, written by Peter Selinger 2001-2017
</metadata>
<g transform="translate(0.000000,286.000000) scale(0.100000,-0.100000)"
fill="#000000" stroke="none">
<path d="M799 2184 c-1 -65 -1 -149 1 -186 1 -37 -1 -72 -6 -79 -4 -7 -6 -41
-5 -75 2 -46 -2 -70 -15 -89 -15 -22 -16 -32 -6 -59 6 -17 11 -70 11 -118 -1
-86 -1 -86 -30 -98 -39 -17 -69 -60 -69 -100 0 -33 34 -100 51 -100 5 0 9
-113 9 -270 0 -263 0 -270 -20 -270 -18 0 -20 -7 -20 -72 0 -105 -5 -116 -46
-114 -35 2 -79 35 -90 68 -6 20 -24 25 -24 5 0 -7 -11 -24 -25 -39 -14 -15
-25 -36 -25 -46 0 -28 -48 -17 -52 12 -2 16 -11 22 -41 24 l-37 3 0 54 c0 73
-21 80 -107 37 -18 -9 -33 -20 -33 -24 0 -5 -7 -8 -15 -8 -10 0 -15 -10 -15
-32 0 -25 -3 -29 -10 -18 -5 8 -10 23 -10 34 0 10 -11 27 -25 38 -18 14 -25
29 -25 54 0 19 -4 34 -10 34 -5 0 -10 -14 -10 -32 0 -22 -8 -39 -25 -53 -21
-18 -25 -29 -26 -92 -1 -50 -6 -74 -16 -77 -7 -3 -13 -15 -13 -26 0 -11 -4
-20 -10 -20 -6 0 -10 -82 -10 -225 l0 -225 2250 0 2250 0 0 111 c0 102 -2 112
-22 128 -29 24 -55 16 -63 -20 -9 -42 -33 -37 -37 8 l-3 37 -75 14 c-133 23
-132 23 -137 1 -8 -29 -23 -23 -23 9 0 16 -2 31 -5 34 -12 11 -53 -5 -58 -23
-4 -14 -14 -19 -36 -19 -30 0 -31 -2 -31 -41 0 -24 -4 -38 -10 -34 -5 3 -10
38 -10 76 0 50 -4 71 -14 75 -12 5 -38 80 -35 100 2 12 -26 24 -55 24 -23 0
-27 3 -23 20 3 11 1 20 -4 20 -5 0 -9 44 -9 98 0 86 -2 99 -20 110 -11 7 -20
21 -20 31 0 15 -10 20 -50 26 -28 4 -77 4 -110 0 l-60 -7 0 -49 c0 -45 -2 -49
-24 -49 -15 0 -26 -7 -29 -21 -3 -11 -6 -109 -7 -217 0 -108 -3 -198 -5 -200
-2 -3 -11 -2 -20 1 -12 5 -15 27 -15 124 0 97 -4 122 -18 139 -24 30 -55 44
-96 44 -33 0 -36 2 -36 30 0 19 -7 34 -20 42 -17 11 -20 24 -20 75 0 55 -2 62
-22 69 -33 11 -158 8 -190 -5 l-28 -11 0 -230 0 -230 -34 0 c-18 0 -48 3 -65
6 l-31 6 0 200 0 199 -37 -7 c-21 -4 -40 -8 -42 -11 -3 -2 -27 18 -53 44 -40
39 -51 46 -66 37 -15 -10 -17 -36 -20 -253 l-2 -241 -25 0 -25 0 0 344 0 345
-31 46 c-17 25 -32 57 -34 71 -5 46 -23 50 -31 8 -4 -22 -20 -58 -35 -81 l-29
-42 0 -343 c0 -199 -4 -337 -9 -329 -5 7 -10 100 -11 205 -1 105 -5 310 -9
456 l-6 265 -75 -2 c-41 -2 -85 -5 -97 -8 l-23 -5 0 -380 0 -380 -26 0 c-23 0
-25 -3 -20 -25 5 -18 2 -25 -9 -25 -10 0 -15 10 -15 30 0 17 -4 30 -10 30 -5
0 -10 16 -10 35 0 24 -5 35 -15 35 -21 0 -19 46 3 55 13 5 6 11 -30 27 -27 11
-48 26 -48 32 0 7 -3 8 -8 1 -12 -18 -60 -45 -79 -45 -17 -1 -17 -1 0 -14 22
-17 22 -43 -2 -51 -23 -7 -30 -69 -33 -279 -2 -165 -2 -163 -24 111 -4 61 -10
83 -20 83 -10 0 -14 13 -14 42 0 49 -10 44 -20 -9 -3 -22 -11 -37 -18 -35 -8
1 -12 -18 -12 -63 l0 -65 -30 0 c-28 0 -30 3 -30 38 0 20 -5 44 -10 52 -9 13
-12 13 -21 -3 -12 -21 -38 -22 -45 -2 -9 21 -19 19 -33 -8 -9 -17 -27 -26 -62
-33 -48 -10 -49 -10 -49 13 0 19 -5 23 -30 23 -23 0 -33 -6 -39 -23 -17 -44
-33 52 -38 218 -3 88 -9 165 -14 172 -7 7 -5 13 3 16 29 12 -17 28 -65 22 -61
-7 -79 -14 -70 -29 13 -21 2 -328 -13 -384 -9 -28 -18 -52 -21 -52 -3 0 -3 25
1 55 5 48 4 55 -15 65 -11 6 -32 10 -47 8 -25 -3 -26 -1 -24 37 3 37 -1 44
-58 100 -57 56 -60 62 -60 107 0 42 -3 48 -21 48 -11 0 -47 -18 -80 -40 l-59
-41 0 -67 c-1 -94 -18 -58 -25 49 -2 46 -9 85 -15 87 -6 2 -10 97 -10 271 0
254 1 269 20 286 49 44 31 138 -35 176 l-35 21 0 95 c0 52 5 103 10 114 8 14
6 27 -5 50 -13 24 -17 80 -22 287 -3 141 -7 259 -9 261 -2 2 -5 -49 -5 -115z"/>
</g>
</svg>
