<?xml version="1.0" standalone="no"?>
<!DOCTYPE svg PUBLIC "-//W3C//DTD SVG 20010904//EN"
 "http://www.w3.org/TR/2001/REC-SVG-20010904/DTD/svg10.dtd">
<svg version="1.0" xmlns="http://www.w3.org/2000/svg"
 width="595.000000pt" height="379.000000pt" viewBox="0 0 595.000000 379.000000"
 preserveAspectRatio="xMidYMid meet">
<metadata>
Created by potrace 1.15, written by Peter Selinger 2001-2017
</metadata>
<g transform="translate(0.000000,379.000000) scale(0.100000,-0.100000)"
fill="#000000" stroke="none">
<path d="M5656 3755 c-9 -9 -14 -21 -11 -26 8 -12 -15 -11 -54 2 -25 9 -36 8
-56 -5 -28 -18 -33 -56 -15 -116 6 -19 15 -73 20 -119 l9 -83 -29 -25 c-16
-13 -32 -32 -35 -42 -6 -19 -15 -23 -115 -56 -204 -65 -266 -102 -276 -166 -4
-21 -13 -44 -20 -50 -18 -15 -18 -23 2 -65 9 -19 15 -36 13 -38 -44 -36 -118
-76 -143 -76 -33 0 -109 -31 -120 -49 -4 -6 1 -22 10 -36 16 -24 15 -26 -21
-75 -21 -28 -70 -75 -109 -104 -39 -29 -77 -60 -85 -70 -25 -30 -68 -46 -127
-46 -49 0 -55 2 -49 18 4 9 10 39 15 67 4 27 13 51 19 53 31 10 -11 154 -57
195 -25 22 -48 11 -76 -37 -26 -43 -31 -19 -7 34 15 34 17 49 9 74 -6 17 -12
44 -15 59 -12 64 -193 104 -193 42 0 -12 -7 -28 -15 -35 -8 -7 -15 -21 -15
-31 0 -11 -5 -16 -14 -13 -7 3 -23 -6 -34 -20 -16 -21 -20 -42 -21 -117 0 -81
2 -94 26 -130 24 -36 25 -45 19 -107 -7 -67 -24 -105 -60 -126 -14 -9 -22 -6
-41 17 -40 46 -50 99 -47 252 1 76 7 157 13 178 7 25 7 43 1 49 -12 12 -23 -4
-31 -45 -4 -17 -12 -32 -18 -34 -13 -5 28 109 48 133 7 8 20 12 30 9 21 -7 24
2 9 25 -20 33 -74 -50 -110 -172 -11 -35 -1 -43 24 -19 l21 20 -6 -112 c-11
-232 60 -377 144 -289 24 25 28 39 34 109 5 74 4 83 -21 125 -24 42 -26 52
-22 128 4 58 10 88 21 99 14 14 17 14 25 1 9 -13 11 -13 20 0 5 8 7 23 4 32
-3 11 3 22 15 30 14 9 19 19 15 35 -6 21 -3 23 32 22 48 0 130 -31 126 -48 -1
-6 5 -25 13 -41 20 -38 19 -59 -4 -111 -11 -24 -17 -47 -15 -51 11 -17 36 -7
52 22 33 58 60 48 98 -38 26 -58 31 -98 13 -104 -6 -2 -15 -28 -21 -58 -5 -30
-14 -60 -20 -67 -15 -19 -2 -30 45 -36 63 -9 113 9 166 57 25 24 67 57 94 75
57 39 131 133 124 158 -2 10 -8 26 -12 36 -6 13 2 21 36 37 24 11 58 20 75 20
19 0 54 15 91 40 l60 41 -11 39 c-5 22 -14 40 -20 40 -5 0 -2 8 6 18 9 9 18
33 22 53 11 63 47 85 236 149 116 39 128 46 173 93 l47 51 -6 66 c-3 36 -12
97 -20 137 -22 103 -12 117 67 108 55 -7 59 -6 59 14 0 16 6 21 24 21 30 0 33
-4 71 -100 24 -59 35 -75 55 -80 16 -4 26 -14 28 -28 3 -16 10 -22 29 -22 16
0 27 -7 30 -20 3 -11 10 -20 15 -20 6 0 -8 -21 -31 -47 -23 -27 -48 -56 -57
-66 -11 -13 -23 -17 -44 -12 -25 6 -30 3 -36 -19 -3 -14 -3 -37 0 -50 5 -19 1
-26 -14 -31 -11 -3 -20 -12 -20 -20 0 -8 -9 -17 -20 -20 -18 -6 -20 -15 -20
-79 0 -98 10 -166 25 -166 6 0 22 -11 35 -25 28 -30 37 -31 64 -8 15 13 14 10
-4 -10 -13 -15 -30 -25 -36 -23 -7 3 -18 -2 -25 -10 -7 -8 -20 -12 -30 -9 -14
5 -19 1 -19 -14 0 -21 -30 -46 -97 -80 -55 -28 -131 -102 -145 -141 -10 -29
-8 -34 15 -56 21 -20 24 -30 20 -66 -2 -24 -11 -61 -19 -84 -13 -37 -17 -40
-44 -36 -16 2 -35 10 -41 18 -6 8 -15 14 -20 14 -21 0 -6 -31 37 -79 l46 -51
-12 -105 c-8 -62 -17 -102 -23 -98 -5 3 -7 26 -3 52 5 41 3 50 -16 69 -22 20
-26 22 -48 22 -5 0 -10 13 -10 29 0 17 -5 33 -11 37 -7 4 -9 24 -6 55 5 37 3
49 -7 49 -20 0 -28 -28 -15 -52 6 -11 8 -26 5 -33 -2 -7 2 -19 10 -26 8 -7 12
-19 9 -26 -7 -21 13 -53 33 -53 31 0 51 -34 43 -71 -8 -34 5 -79 21 -79 13 0
16 15 31 123 15 107 14 109 -41 170 l-26 27 27 0 c15 0 30 -7 33 -15 4 -8 10
-13 14 -10 13 8 37 93 44 152 6 45 4 55 -14 70 -11 10 -20 27 -20 38 0 15 2
17 9 6 5 -8 16 -11 25 -8 35 14 166 109 177 128 13 26 6 34 -19 20 -11 -6 -22
-8 -25 -5 -3 3 -21 -6 -40 -20 -36 -28 -51 -33 -45 -16 2 6 35 28 73 49 39 20
75 46 80 58 6 11 15 18 21 16 6 -2 17 3 24 12 7 8 20 15 29 15 29 0 64 45 56
70 -7 23 -7 23 -29 -4 l-21 -27 -24 25 c-14 14 -31 26 -39 26 -10 0 -12 8 -7
30 4 19 3 30 -4 30 -7 0 -10 28 -9 80 1 71 3 80 20 80 11 0 18 7 18 19 0 11 9
23 21 26 14 5 19 14 18 33 -5 61 -1 69 30 64 20 -3 34 2 45 15 9 10 34 39 56
64 39 46 50 69 30 69 -5 0 -9 3 -8 8 4 21 -15 39 -37 35 -19 -4 -24 0 -27 18
-2 16 -11 25 -26 27 -23 4 -28 12 -68 112 -10 25 -22 50 -28 56 -20 22 -53 25
-70 9z"/>
<path d="M520 3669 c0 -6 5 -19 10 -29 7 -13 7 -21 -1 -25 -6 -4 -7 -19 -4
-36 7 -32 -1 -69 -16 -69 -5 0 -9 11 -9 25 0 18 -9 29 -32 41 -18 9 -54 31
-80 50 -41 29 -48 31 -59 17 -15 -17 -21 -213 -7 -213 5 0 5 -8 0 -17 -5 -10
-7 -24 -5 -30 3 -7 0 -13 -6 -13 -21 0 -12 -48 11 -56 22 -6 22 -7 -4 -20 -29
-15 -58 -76 -88 -188 -23 -83 -71 -194 -104 -239 -17 -23 -21 -49 -26 -160 -6
-132 -13 -158 -57 -229 -16 -24 -16 -32 -3 -75 8 -28 13 -81 11 -129 -2 -66 1
-90 17 -121 11 -21 23 -55 27 -75 4 -20 15 -44 25 -53 17 -15 19 -15 33 5 9
13 17 17 22 11 3 -6 1 -11 -6 -11 -7 0 -9 -10 -7 -25 5 -22 2 -24 -18 -19 -21
6 -24 3 -24 -26 0 -35 13 -64 43 -98 18 -19 19 -26 9 -42 -7 -11 -12 -27 -12
-35 0 -23 49 -137 68 -158 22 -25 42 -85 42 -128 0 -41 17 -61 74 -84 20 -9
57 -34 81 -56 23 -22 49 -38 56 -37 7 2 15 -8 19 -22 3 -14 16 -30 28 -36 58
-29 102 -99 102 -162 l0 -39 138 -7 c111 -6 141 -11 157 -25 24 -22 284 -164
375 -206 63 -29 71 -30 233 -33 l167 -4 0 31 0 31 96 0 c108 0 131 -9 195 -77
20 -22 53 -50 73 -63 27 -19 39 -37 51 -77 8 -28 15 -55 15 -60 0 -12 55 -63
109 -102 66 -47 84 -43 123 32 32 60 35 62 75 65 51 4 112 -12 144 -37 14 -10
49 -61 79 -111 30 -51 72 -109 93 -129 25 -23 43 -54 55 -90 28 -91 94 -141
185 -141 15 0 44 -7 64 -15 40 -17 83 -20 83 -6 0 5 -11 33 -25 63 -26 55 -33
122 -14 134 6 4 8 20 5 39 -5 24 -2 34 9 39 8 3 15 13 15 22 0 9 15 31 33 48
17 17 32 35 32 41 0 5 14 10 32 10 17 1 29 -3 27 -7 -15 -23 22 -2 61 35 42
41 45 47 45 96 0 34 4 50 11 46 6 -4 8 -13 5 -21 -8 -20 1 -18 54 15 58 36
106 44 192 33 62 -8 69 -7 81 11 17 26 50 18 103 -24 30 -24 45 -29 67 -25 20
4 38 0 57 -14 41 -29 50 -25 50 20 0 46 7 48 44 19 28 -22 56 -20 56 5 0 9
-13 22 -30 31 -34 18 -35 22 -15 49 21 28 19 56 -4 56 -11 0 -23 -5 -26 -10
-5 -8 -11 -7 -21 1 -10 8 -22 8 -44 0 -28 -9 -31 -8 -28 7 3 14 13 16 56 14
37 -2 63 3 91 18 22 11 51 20 63 20 13 0 33 7 45 15 20 14 22 14 28 -5 8 -26
24 -25 68 4 19 13 38 22 41 19 2 -3 21 0 41 7 31 10 42 10 68 -4 18 -8 48 -22
67 -31 19 -8 43 -20 52 -27 14 -10 26 -8 67 12 28 13 58 31 67 41 20 22 51 12
105 -34 20 -18 52 -41 71 -52 29 -18 34 -27 41 -80 14 -99 17 -107 32 -101 11
4 15 -2 15 -24 0 -30 51 -100 74 -100 6 0 25 -23 41 -51 20 -33 43 -58 67 -70
24 -12 45 -34 58 -58 19 -38 21 -39 52 -31 57 16 78 51 78 129 0 88 -22 160
-65 210 -18 23 -43 66 -54 97 -12 30 -43 81 -69 112 -56 68 -132 209 -132 246
0 52 32 180 50 204 10 13 16 30 14 37 -4 9 6 19 28 28 46 19 104 92 114 142
10 55 28 80 80 110 27 16 52 41 64 64 11 22 35 49 55 61 20 12 43 34 52 47 16
24 16 26 0 38 -9 7 -17 19 -17 28 0 8 -6 18 -12 20 -7 3 2 6 19 6 43 1 71 40
55 76 -10 21 -17 24 -47 20 -39 -5 -39 10 0 25 l23 9 -25 50 c-20 40 -31 51
-50 51 -14 0 -22 4 -18 10 4 6 -2 28 -14 49 -11 22 -17 42 -14 45 5 5 -11 42
-36 86 -25 43 -42 100 -37 121 7 23 6 23 -8 5 -14 -17 -13 -23 1 -55 8 -20 16
-43 17 -51 1 -9 5 -21 9 -27 6 -9 -1 -9 -25 -2 -45 14 -53 15 -55 7 -10 -28 1
-36 55 -44 50 -8 57 -12 60 -34 2 -14 10 -32 17 -40 8 -9 12 -29 10 -48 -4
-29 -2 -32 24 -32 23 0 31 -7 46 -40 18 -39 18 -40 -6 -59 -15 -12 -28 -16
-34 -10 -17 17 -23 9 -16 -19 4 -15 9 -26 12 -25 33 13 62 14 70 2 8 -12 11
-12 19 1 8 12 10 9 10 -11 0 -32 -22 -53 -48 -45 -10 3 -27 0 -37 -8 -18 -13
-18 -14 3 -20 18 -6 21 -12 16 -33 -6 -22 -4 -25 10 -20 35 14 14 -24 -33 -58
-27 -19 -54 -49 -61 -66 -8 -18 -35 -45 -65 -65 -55 -37 -68 -55 -84 -120 -14
-52 -73 -121 -114 -132 -26 -7 -31 -13 -29 -32 1 -13 -4 -30 -11 -39 -20 -23
-37 -93 -44 -170 -5 -65 -4 -71 38 -152 24 -46 65 -109 91 -141 26 -31 57 -82
69 -113 12 -31 34 -72 50 -90 42 -48 61 -99 66 -187 6 -75 5 -77 -25 -107 -40
-41 -64 -40 -85 4 -10 21 -31 42 -55 54 -24 12 -45 34 -57 58 -11 21 -23 40
-27 41 -5 2 -8 10 -8 18 0 8 -9 14 -19 14 -29 0 -71 56 -71 95 0 33 -24 56
-34 32 -2 -7 -5 14 -5 45 -1 74 -14 105 -52 126 -18 9 -51 33 -74 53 -56 47
-91 56 -119 31 -11 -11 -39 -29 -62 -40 -40 -20 -41 -20 -72 -2 -16 10 -49 24
-71 31 -23 7 -41 16 -41 21 0 5 -26 7 -58 4 -42 -3 -70 -12 -98 -31 l-39 -26
-12 30 -13 30 -24 -24 c-14 -14 -37 -25 -51 -25 -14 0 -40 -8 -58 -17 -20 -11
-54 -18 -92 -18 -58 0 -60 -1 -63 -27 -4 -30 3 -33 42 -18 20 7 27 6 35 -8 9
-15 11 -15 30 2 28 25 38 13 17 -18 -23 -36 -20 -53 14 -71 17 -9 30 -20 30
-25 0 -16 -15 -12 -34 9 -22 25 -63 33 -70 14 -4 -8 -3 -25 0 -39 7 -28 -3
-30 -33 -9 -11 8 -37 14 -56 13 -24 -1 -44 6 -65 24 -16 13 -44 31 -62 38 -30
12 -34 12 -50 -7 -15 -19 -26 -21 -121 -19 -93 1 -107 -1 -136 -21 -37 -27
-37 -27 -57 -7 -24 23 -36 8 -36 -46 0 -40 -5 -55 -27 -79 -29 -31 -83 -50
-83 -30 0 8 -5 7 -17 -2 -9 -8 -18 -13 -20 -11 -10 7 -23 0 -23 -13 0 -8 -16
-30 -36 -49 -21 -20 -33 -39 -29 -46 4 -7 -1 -13 -13 -17 -17 -4 -19 -11 -15
-44 5 -32 3 -39 -11 -39 -9 0 -16 -4 -16 -10 0 -5 5 -10 10 -10 6 0 10 -16 10
-36 0 -19 10 -58 21 -85 12 -27 19 -52 17 -55 -3 -3 -23 2 -44 10 -22 8 -63
17 -93 21 -95 11 -133 43 -165 140 -10 31 -30 63 -54 85 -20 20 -62 78 -92
129 -73 124 -104 146 -209 146 l-76 0 -33 -63 c-29 -54 -36 -62 -55 -56 -48
14 -157 108 -157 134 0 9 -7 36 -15 61 -12 34 -28 53 -70 83 -30 21 -56 44
-59 51 -8 23 -74 67 -113 76 -21 5 -73 6 -115 3 l-78 -7 0 -29 0 -29 -162 6
c-147 5 -168 8 -223 33 -86 38 -377 199 -385 212 -5 7 -57 14 -141 18 l-134 7
-5 45 c-9 69 -50 132 -98 151 -12 5 -25 17 -28 26 -10 32 -22 48 -34 45 -7 -1
-30 14 -52 33 -22 20 -61 45 -86 56 -55 24 -62 32 -62 80 0 45 -17 98 -40 124
-10 11 -30 49 -45 85 -21 50 -25 68 -16 82 16 25 14 53 -5 69 -8 7 -22 25 -30
40 -26 51 -13 77 20 43 15 -14 16 -12 16 22 0 23 6 41 17 49 15 11 14 14 -14
28 -30 16 -31 16 -36 -5 -5 -18 -8 -19 -21 -8 -9 7 -16 23 -16 37 0 13 -12 47
-26 75 -24 47 -26 59 -20 121 5 52 2 83 -11 123 -16 53 -16 55 5 84 38 51 45
81 52 217 5 111 9 137 26 160 32 44 82 160 109 256 14 49 34 106 45 128 18 35
25 39 57 39 35 0 36 0 18 20 -10 11 -27 22 -38 26 -15 5 -17 8 -6 15 11 6 13
37 11 144 -2 74 0 140 3 145 4 6 24 -2 48 -19 23 -15 57 -36 75 -45 39 -20 40
-35 7 -66 -14 -13 -25 -29 -25 -37 0 -22 28 -15 46 11 8 14 22 22 29 19 17 -6
29 34 23 77 -3 18 1 35 9 42 10 8 11 14 2 25 -7 7 -9 16 -7 19 3 3 77 -17 164
-44 195 -61 288 -87 380 -106 117 -25 752 -124 864 -136 58 -6 343 -13 634
-17 l529 -6 -6 31 c-9 46 9 39 31 -12 18 -38 23 -43 46 -39 14 3 33 0 41 -7
13 -11 23 -10 55 0 38 13 43 12 116 -25 65 -32 80 -36 101 -26 29 13 100 15
108 2 3 -5 -15 -27 -40 -48 -59 -49 -147 -152 -139 -164 10 -16 39 -10 75 17
33 24 34 24 37 5 3 -16 11 -21 36 -21 37 0 87 32 150 96 43 43 86 71 86 56 0
-5 -9 -17 -20 -27 -11 -10 -20 -31 -20 -46 l0 -28 29 17 c29 16 31 16 59 -5
46 -34 87 -34 129 1 38 31 101 52 116 37 6 -6 26 -11 43 -11 25 0 38 -7 54
-30 l21 -30 -25 0 c-14 0 -26 -4 -26 -10 0 -6 -18 -7 -44 -4 -28 4 -46 2 -50
-5 -4 -6 -23 -18 -42 -26 -19 -8 -34 -18 -34 -23 0 -10 59 17 84 37 9 7 30 9
55 5 22 -4 41 -3 41 2 0 5 12 10 26 10 38 3 39 9 7 48 -22 28 -35 36 -60 36
-18 0 -36 7 -40 15 -7 13 -14 13 -56 0 -27 -8 -62 -26 -79 -40 -36 -31 -70
-32 -108 -4 -19 15 -38 20 -59 17 -17 -2 -31 -3 -31 -1 0 3 11 19 25 37 60 79
13 71 -82 -13 -73 -65 -106 -89 -134 -96 -20 -5 -27 -1 -37 19 l-12 26 -45
-32 c-24 -17 -48 -29 -51 -25 -9 9 77 107 142 163 41 34 52 49 42 55 -18 12
-115 11 -138 -1 -14 -7 -34 -1 -85 25 -70 37 -103 42 -137 24 -14 -8 -23 -8
-31 0 -6 6 -25 11 -42 11 -26 0 -33 6 -50 43 -26 56 -55 62 -55 13 l0 -36
-267 0 c-389 1 -841 17 -973 35 -310 43 -749 119 -865 150 -71 18 -203 56
-292 84 -180 57 -173 55 -173 40z"/>
</g>
</svg>
